<svg version="1.1" id="Layer_1" xmlns="http://www.w3.org/2000/svg" xmlns:xlink="http://www.w3.org/1999/xlink" x="0px" y="0px"
	 width="100%" viewBox="0 0 631 632" enable-background="new 0 0 631 632" xml:space="preserve">
<path fill="#5E17EB" opacity="1.000000" stroke="none" 
	d="
M632.000000,436.000000 
	C632.000000,501.652893 632.000000,567.305786 632.000000,632.979370 
	C421.724548,632.979370 211.449081,632.979370 1.086811,632.979370 
	C1.086811,422.435425 1.086811,211.870773 1.086811,1.000000 
	C190.691452,1.000000 380.383087,1.000000 570.499756,1.351525 
	C570.031311,3.300908 569.157166,4.909943 568.241638,6.495014 
	C486.790710,147.507965 405.335480,288.518402 323.894958,429.537354 
	C322.806946,431.421356 321.902466,433.411346 320.612488,435.939484 
	C323.806030,435.939484 325.963867,435.939117 328.121704,435.939545 
	C429.414459,435.959656 530.707214,435.979828 632.000000,436.000000 
M235.759506,472.752991 
	C213.864243,434.874237 191.968994,396.995453 169.659317,358.399780 
	C126.670265,432.826935 84.157455,506.429596 41.212532,580.780334 
	C127.296600,580.780334 212.260391,580.780334 298.125580,580.780334 
	C277.198883,544.544006 256.654449,508.969513 235.759506,472.752991 
M240.639420,199.458832 
	C240.639420,203.396500 240.639420,207.334183 240.639420,211.207382 
	C261.152435,211.207382 281.002167,212.000946 300.760834,210.998962 
	C323.534058,209.844086 341.085236,184.864899 336.230652,162.558517 
	C334.377289,154.042618 329.742767,147.429886 323.395233,141.889374 
	C332.110229,131.229797 333.977203,127.600273 335.064758,117.342400 
	C337.626617,93.178703 323.152344,71.716316 296.838287,71.654083 
	C280.677063,71.615860 264.515930,71.519920 248.354752,71.453323 
	C245.915756,71.443275 243.476685,71.451927 240.639496,71.451927 
	C240.639496,114.215775 240.639496,156.343887 240.639420,199.458832 
M193.499146,211.315140 
	C200.925568,211.315140 208.351974,211.315140 216.169174,211.315140 
	C216.169174,203.098801 215.995789,195.616348 216.242798,188.147797 
	C216.365082,184.450607 215.185120,183.153091 211.442352,183.224365 
	C201.282837,183.417801 191.117142,183.306244 180.954056,183.271790 
	C179.277008,183.266113 177.600723,183.039017 175.058792,182.849854 
	C179.877258,175.342758 184.147797,168.816711 188.288681,162.209412 
	C195.264648,151.078384 203.133575,140.373520 208.883865,128.635544 
	C220.883926,104.139931 210.920609,79.956718 186.406387,72.182365 
	C167.146515,66.074364 149.247253,70.434227 132.347153,80.335541 
	C131.164978,81.028137 130.029495,83.444664 130.318573,84.735703 
	C132.109100,92.731911 134.313690,100.635414 136.458923,108.869576 
	C137.566284,108.134659 138.230728,107.646683 138.937912,107.231491 
	C148.081207,101.863472 157.592346,97.593941 168.510895,97.953041 
	C179.202148,98.304657 185.515106,107.247253 182.001770,117.249725 
	C180.857071,120.508667 179.178375,123.645432 177.338760,126.584465 
	C163.473602,148.735855 149.499313,170.818924 135.578110,192.935287 
	C131.904816,198.770981 128.297943,204.648468 124.158691,211.315094 
	C147.609589,211.315094 170.054413,211.315094 193.499146,211.315140 
M93.484177,71.695267 
	C88.751465,71.695267 84.018745,71.695267 79.221375,71.695267 
	C79.221375,118.596245 79.221375,164.670822 79.221375,210.903183 
	C88.410294,210.903183 97.432098,210.903183 106.501907,210.903183 
	C106.501907,164.422806 106.501907,118.361191 106.501907,71.695312 
	C102.368500,71.695312 98.417526,71.695312 93.484177,71.695267 
z"/>
<path fill="#5CE1E6" opacity="1.000000" stroke="none" 
	d="
M632.000000,435.531342 
	C530.707214,435.979828 429.414459,435.959656 328.121704,435.939545 
	C325.963867,435.939117 323.806030,435.939484 320.612488,435.939484 
	C321.902466,433.411346 322.806946,431.421356 323.894958,429.537354 
	C405.335480,288.518402 486.790710,147.507965 568.241638,6.495014 
	C569.157166,4.909943 570.031311,3.300908 570.962402,1.351525 
	C591.315369,1.000000 611.630798,1.000000 632.000000,1.000000 
	C632.000000,145.687561 632.000000,290.375122 632.000000,435.531342 
z"/>
<path fill="#175457" opacity="1.000000" stroke="none" 
	d="
M235.934753,473.074036 
	C256.654449,508.969513 277.198883,544.544006 298.125580,580.780334 
	C212.260391,580.780334 127.296600,580.780334 41.212532,580.780334 
	C84.157455,506.429596 126.670265,432.826935 169.659317,358.399780 
	C191.968994,396.995453 213.864243,434.874237 235.934753,473.074036 
z"/>
<path fill="#010002" opacity="1.000000" stroke="none" 
	d="
M240.639465,198.965424 
	C240.639496,156.343887 240.639496,114.215775 240.639496,71.451927 
	C243.476685,71.451927 245.915756,71.443275 248.354752,71.453323 
	C264.515930,71.519920 280.677063,71.615860 296.838287,71.654083 
	C323.152344,71.716316 337.626617,93.178703 335.064758,117.342400 
	C333.977203,127.600273 332.110229,131.229797 323.395233,141.889374 
	C329.742767,147.429886 334.377289,154.042618 336.230652,162.558517 
	C341.085236,184.864899 323.534058,209.844086 300.760834,210.998962 
	C281.002167,212.000946 261.152435,211.207382 240.639420,211.207382 
	C240.639420,207.334183 240.639420,203.396500 240.639465,198.965424 
M277.587463,99.118469 
	C276.424225,99.118752 275.239349,99.263855 274.101471,99.094200 
	C269.210266,98.364952 267.718445,100.494263 268.003357,105.242882 
	C268.370911,111.369469 268.236938,117.539124 268.040802,123.681351 
	C267.934692,127.005646 269.221710,128.005157 272.412262,127.917374 
	C279.054321,127.734642 285.707062,127.967751 292.351410,127.833328 
	C301.136200,127.655602 306.164764,122.403763 306.195251,113.629562 
	C306.225372,104.957764 301.152863,99.496994 292.523254,99.162323 
	C287.877167,98.982132 283.218597,99.122650 277.587463,99.118469 
M297.956207,182.888916 
	C305.270172,179.468231 308.098999,174.592743 307.136566,167.066544 
	C306.470428,161.857697 302.117706,156.480927 296.900269,156.199585 
	C287.511932,155.693375 278.076660,156.056580 268.128418,156.056580 
	C268.128418,164.719742 268.037506,172.832764 268.246338,180.938049 
	C268.271759,181.924164 269.914307,183.707397 270.799896,183.702713 
	C279.587097,183.656250 288.372711,183.310898 297.956207,182.888916 
z"/>
<path fill="#020002" opacity="1.000000" stroke="none" 
	d="
M192.999176,211.315125 
	C170.054413,211.315094 147.609589,211.315094 124.158691,211.315094 
	C128.297943,204.648468 131.904816,198.770981 135.578110,192.935287 
	C149.499313,170.818924 163.473602,148.735855 177.338760,126.584465 
	C179.178375,123.645432 180.857071,120.508667 182.001770,117.249725 
	C185.515106,107.247253 179.202148,98.304657 168.510895,97.953041 
	C157.592346,97.593941 148.081207,101.863472 138.937912,107.231491 
	C138.230728,107.646683 137.566284,108.134659 136.458923,108.869576 
	C134.313690,100.635414 132.109100,92.731911 130.318573,84.735703 
	C130.029495,83.444664 131.164978,81.028137 132.347153,80.335541 
	C149.247253,70.434227 167.146515,66.074364 186.406387,72.182365 
	C210.920609,79.956718 220.883926,104.139931 208.883865,128.635544 
	C203.133575,140.373520 195.264648,151.078384 188.288681,162.209412 
	C184.147797,168.816711 179.877258,175.342758 175.058792,182.849854 
	C177.600723,183.039017 179.277008,183.266113 180.954056,183.271790 
	C191.117142,183.306244 201.282837,183.417801 211.442352,183.224365 
	C215.185120,183.153091 216.365082,184.450607 216.242798,188.147797 
	C215.995789,195.616348 216.169174,203.098801 216.169174,211.315140 
	C208.351974,211.315140 200.925568,211.315140 192.999176,211.315125 
z"/>
<path fill="#020004" opacity="1.000000" stroke="none" 
	d="
M93.975365,71.695290 
	C98.417526,71.695312 102.368500,71.695312 106.501907,71.695312 
	C106.501907,118.361191 106.501907,164.422806 106.501907,210.903183 
	C97.432098,210.903183 88.410294,210.903183 79.221375,210.903183 
	C79.221375,164.670822 79.221375,118.596245 79.221375,71.695267 
	C84.018745,71.695267 88.751465,71.695267 93.975365,71.695290 
z"/>
<path fill="#5B16E6" opacity="1.000000" stroke="none" 
	d="
M278.076569,99.118469 
	C283.218597,99.122650 287.877167,98.982132 292.523254,99.162323 
	C301.152863,99.496994 306.225372,104.957764 306.195251,113.629562 
	C306.164764,122.403763 301.136200,127.655602 292.351410,127.833328 
	C285.707062,127.967751 279.054321,127.734642 272.412262,127.917374 
	C269.221710,128.005157 267.934692,127.005646 268.040802,123.681351 
	C268.236938,117.539124 268.370911,111.369469 268.003357,105.242882 
	C267.718445,100.494263 269.210266,98.364952 274.101471,99.094200 
	C275.239349,99.263855 276.424225,99.118752 278.076569,99.118469 
z"/>
<path fill="#5C17E8" opacity="1.000000" stroke="none" 
	d="
M297.557495,182.969498 
	C288.372711,183.310898 279.587097,183.656250 270.799896,183.702713 
	C269.914307,183.707397 268.271759,181.924164 268.246338,180.938049 
	C268.037506,172.832764 268.128418,164.719742 268.128418,156.056580 
	C278.076660,156.056580 287.511932,155.693375 296.900269,156.199585 
	C302.117706,156.480927 306.470428,161.857697 307.136566,167.066544 
	C308.098999,174.592743 305.270172,179.468231 297.557495,182.969498 
z"/>
</svg>