<?xml version="1.0" encoding="UTF-8"?>
<!DOCTYPE svg PUBLIC "-//W3C//DTD SVG 1.1//EN" "http://www.w3.org/Graphics/SVG/1.1/DTD/svg11.dtd">
<svg xmlns="http://www.w3.org/2000/svg" version="1.1" width="500px" height="500px" style="shape-rendering:geometricPrecision; text-rendering:geometricPrecision; image-rendering:optimizeQuality; fill-rule:evenodd; clip-rule:evenodd" xmlns:xlink="http://www.w3.org/1999/xlink">
<g><path style="opacity:1" fill="#000000" d="M -0.5,-0.5 C 166.167,-0.5 332.833,-0.5 499.5,-0.5C 499.5,166.167 499.5,332.833 499.5,499.5C 332.833,499.5 166.167,499.5 -0.5,499.5C -0.5,332.833 -0.5,166.167 -0.5,-0.5 Z"/></g>
<g><path style="opacity:1" fill="#7f7f7f" d="M 147.5,88.5 C 137.5,88.5 127.5,88.5 117.5,88.5C 117.5,132.5 117.5,176.5 117.5,220.5C 111.5,220.5 105.5,220.5 99.5,220.5C 104.975,219.511 110.642,219.178 116.5,219.5C 116.5,175.5 116.5,131.5 116.5,87.5C 127.014,87.1724 137.347,87.5058 147.5,88.5 Z"/></g>
<g><path style="opacity:1" fill="#fefefe" d="M 147.5,88.5 C 147.5,132.5 147.5,176.5 147.5,220.5C 153.5,220.5 159.5,220.5 165.5,220.5C 165.817,229.418 165.484,238.251 164.5,247C 142.833,247.667 121.167,247.667 99.5,247C 98.1719,238.068 98.1719,229.235 99.5,220.5C 105.5,220.5 111.5,220.5 117.5,220.5C 117.5,176.5 117.5,132.5 117.5,88.5C 127.5,88.5 137.5,88.5 147.5,88.5 Z"/></g>
<g><path style="opacity:1" fill="#fcfcfc" d="M 174.5,88.5 C 205.833,88.5 237.167,88.5 268.5,88.5C 258.455,109.082 247.455,129.248 235.5,149C 251.386,153.921 261.552,164.421 266,180.5C 273.377,226.451 253.877,248.618 207.5,247C 182.352,241.03 169.685,225.197 169.5,199.5C 179.172,199.334 188.839,199.5 198.5,200C 198.672,209.013 203.006,215.013 211.5,218C 231.068,218.802 239.568,209.302 237,189.5C 233.96,180.458 227.793,174.958 218.5,173C 210.173,172.5 201.84,172.334 193.5,172.5C 193.372,170.345 193.872,168.345 195,166.5C 204.833,150 214.667,133.5 224.5,117C 207.837,116.5 191.17,116.333 174.5,116.5C 174.5,107.167 174.5,97.8333 174.5,88.5 Z"/></g>
<g><path style="opacity:1" fill="#fcfcfc" d="M 333.5,183.5 C 314.007,182.503 294.34,182.17 274.5,182.5C 274.5,151.5 274.5,120.5 274.5,89.5C 296.329,88.3371 318.329,88.1705 340.5,89C 375.729,96.871 388.229,118.038 378,152.5C 373.702,159.399 367.869,164.566 360.5,168C 379.075,175.642 386.908,189.475 384,209.5C 380.3,228.867 368.8,240.701 349.5,245C 346.167,245.667 342.833,246.333 339.5,247C 327.838,247.5 316.171,247.667 304.5,247.5C 304.5,237.833 304.5,228.167 304.5,218.5C 315.881,218.856 327.215,218.356 338.5,217C 352.01,213.791 356.51,205.624 352,192.5C 347.343,186.55 341.176,183.55 333.5,183.5 Z"/></g>
<g><path style="opacity:1" fill="#020202" d="M 304.5,116.5 C 313.839,116.334 323.173,116.5 332.5,117C 348.716,119.949 354.216,129.116 349,144.5C 345.547,148.145 341.38,150.645 336.5,152C 325.839,152.5 315.172,152.667 304.5,152.5C 304.5,140.5 304.5,128.5 304.5,116.5 Z"/></g>
<g><path style="opacity:1" fill="#696969" d="M 274.5,89.5 C 274.5,120.5 274.5,151.5 274.5,182.5C 294.34,182.17 314.007,182.503 333.5,183.5C 313.5,183.5 293.5,183.5 273.5,183.5C 273.168,151.996 273.502,120.662 274.5,89.5 Z"/></g>
<g><path style="opacity:1" fill="#fcfcfc" d="M 285.5,281.5 C 301.054,280.642 316.387,281.976 331.5,285.5C 332.499,295.812 332.832,306.145 332.5,316.5C 324.814,315.496 317.147,314.329 309.5,313C 302.833,312.333 296.167,312.333 289.5,313C 278.206,316.276 275.54,322.943 281.5,333C 296.602,336.526 311.602,340.526 326.5,345C 334.867,348.874 340.034,355.374 342,364.5C 343.669,378.185 342.336,391.518 338,404.5C 329.956,416.781 318.456,423.281 303.5,424C 292.167,424.667 280.833,424.667 269.5,424C 261.654,423.359 253.988,421.859 246.5,419.5C 245.334,408.515 245.168,397.515 246,386.5C 265.211,392.605 284.711,393.771 304.5,390C 307.267,385.183 308.101,380.016 307,374.5C 306.167,373.667 305.333,372.833 304.5,372C 293.542,369.177 282.542,366.51 271.5,364C 256.178,361.012 247.344,351.846 245,336.5C 241.077,304.925 254.577,286.591 285.5,281.5 Z"/></g>
<g><path style="opacity:1" fill="#fdfdfd" d="M 194.5,284.5 C 205.833,284.5 217.167,284.5 228.5,284.5C 228.5,315.833 228.5,347.167 228.5,378.5C 228.72,394.383 222.72,407.216 210.5,417C 198.042,422.98 184.876,425.48 171,424.5C 164.053,424.693 157.22,424.027 150.5,422.5C 149.501,412.188 149.168,401.855 149.5,391.5C 162.266,393.233 174.933,392.733 187.5,390C 191.978,386.329 194.145,381.496 194,375.5C 194.5,345.168 194.667,314.835 194.5,284.5 Z"/></g>
<g><path style="opacity:1" fill="#7d7d7d" d="M 194.5,284.5 C 205.988,283.505 217.655,283.172 229.5,283.5C 229.832,315.338 229.498,347.004 228.5,378.5C 228.5,347.167 228.5,315.833 228.5,284.5C 217.167,284.5 205.833,284.5 194.5,284.5 Z"/></g>
</svg>
